# xmcd CD database file
#
# Track frame offsets:
#	150
#	10720
#	24840
#	42240
#	57440
#	78157
#	91492
#	108545
#
# Disc length: 1709 seconds
#
# Revision: 3
# Processed by: cddbd v1.4PL0 Copyright (c) Steve Scherf et al.
# Submitted via: CDex 1.50beta10
#
DISCID=5406ab08
DTITLE=Fabrizio de André - Fabrizio de André
DYEAR=1970
DGENRE=Pop-Folk
TTITLE0=Il pescatore
TTITLE1=Bocca di rosa
TTITLE2=Le passanti
TTITLE3=Cnzone dell'amore perduto
TTITLE4=La cattiva strada
TTITLE5=Un giudice
TTITLE6=Il testamento
TTITLE7=Verranno a chiederti del nostro amore
EXTD=
EXTT0=
EXTT1=
EXTT2=
EXTT3=
EXTT4=
EXTT5=
EXTT6=
EXTT7=
PLAYORDER=
